<?xml version="1.0" standalone="no"?>
<!DOCTYPE svg PUBLIC "-//W3C//DTD SVG 20010904//EN"
 "http://www.w3.org/TR/2001/REC-SVG-20010904/DTD/svg10.dtd">
<svg version="1.0" xmlns="http://www.w3.org/2000/svg"
 width="24.000000pt" height="24.000000pt" viewBox="0 0 24.000000 24.000000"
 preserveAspectRatio="xMidYMid meet">

<g transform="translate(0.000000,24.000000) scale(0.100000,-0.100000)"
fill="#4dca89" stroke="none">
<path d="M34 227 c-2 -7 -3 -60 -2 -118 l3 -104 85 0 85 0 3 89 c3 85 2 90
-24 118 -24 24 -35 28 -86 28 -39 0 -60 -4 -64 -13z m146 -22 c10 -12 10 -15
-4 -15 -9 0 -16 7 -16 15 0 8 2 15 4 15 2 0 9 -7 16 -15z m-26 -51 c21 -21 20
-46 -4 -77 -11 -14 -20 -30 -20 -36 0 -6 -4 -11 -10 -11 -5 0 -10 5 -10 11 0
6 -9 22 -20 36 -11 14 -20 34 -20 44 0 23 26 49 50 49 10 0 26 -7 34 -16z"/>
<path d="M105 149 c-9 -14 3 -79 15 -79 12 0 24 65 15 79 -3 6 -10 11 -15 11
-5 0 -12 -5 -15 -11z"/>
<path d="M80 124 c0 -10 5 -26 10 -34 8 -11 9 -7 4 15 -8 37 -14 45 -14 19z"/>
<path d="M151 128 c0 -9 -4 -25 -7 -35 -5 -17 -5 -17 6 0 6 10 9 25 7 35 -4
15 -5 15 -6 0z"/>
</g>
</svg>
