<?xml version="1.0" standalone="no"?>
<!DOCTYPE svg PUBLIC "-//W3C//DTD SVG 20010904//EN"
 "http://www.w3.org/TR/2001/REC-SVG-20010904/DTD/svg10.dtd">
<svg version="1.0" xmlns="http://www.w3.org/2000/svg"
 width="32.000000pt" height="32.000000pt" viewBox="0 0 32.000000 32.000000"
 preserveAspectRatio="xMidYMid meet">

<g transform="translate(0.000000,25.000000) scale(0.100000,-0.100000)"
fill="#4dca89" stroke="none">
<path d="M62 254 c-38 -17 -77 -180 -45 -191 6 -2 27 10 46 26 31 28 42 31 98
31 57 0 66 -3 95 -31 22 -21 38 -29 50 -25 37 14 -10 176 -55 191 -11 3 -30 1
-42 -5 -20 -11 -68 -10 -114 3 -11 3 -26 3 -33 1z m44 -89 c-13 -14 -17 -14
-34 1 -18 15 -18 18 -3 34 15 16 17 16 34 -2 16 -16 16 -20 3 -33z m134 45 c0
-5 -4 -10 -10 -10 -5 0 -10 5 -10 10 0 6 5 10 10 10 6 0 10 -4 10 -10z m-26
-31 c-3 -5 -10 -7 -15 -3 -5 3 -7 10 -3 15 3 5 10 7 15 3 5 -3 7 -10 3 -15z
m50 0 c-3 -5 -10 -7 -15 -3 -5 3 -7 10 -3 15 3 5 10 7 15 3 5 -3 7 -10 3 -15z
m-24 -19 c0 -5 -4 -10 -10 -10 -5 0 -10 5 -10 10 0 6 5 10 10 10 6 0 10 -4 10
-10z"/>
</g>
</svg>
