<?xml version="1.0" standalone="no"?>
<!DOCTYPE svg PUBLIC "-//W3C//DTD SVG 20010904//EN"
 "http://www.w3.org/TR/2001/REC-SVG-20010904/DTD/svg10.dtd">
<svg version="1.0" xmlns="http://www.w3.org/2000/svg"
 width="64.000000pt" height="64.000000pt" viewBox="0 0 64.000000 64.000000"
 preserveAspectRatio="xMidYMid meet">

<g transform="translate(0.000000,64.000000) scale(0.100000,-0.100000)"
fill="#4dca89" stroke="none">
<path d="M60 505 c-7 -9 -11 -18 -8 -20 6 -6 58 18 58 28 0 13 -37 7 -50 -8z"/>
<path d="M530 513 c0 -10 52 -34 58 -28 3 2 -1 11 -8 20 -13 15 -50 21 -50 8z"/>
<path d="M80 475 c-7 -9 -11 -18 -8 -20 6 -6 58 18 58 28 0 13 -37 7 -50 -8z"/>
<path d="M510 483 c0 -10 52 -34 58 -28 3 2 -1 11 -8 20 -13 15 -50 21 -50 8z"/>
<path d="M92 414 c-28 -34 -32 -46 -32 -98 0 -42 -6 -68 -21 -93 l-22 -35 42
-41 43 -42 15 22 c11 16 25 23 50 23 33 0 83 35 83 60 0 6 28 10 70 10 42 0
70 -4 70 -10 0 -25 50 -60 83 -60 25 0 39 -7 50 -23 l15 -22 43 42 42 41 -22
35 c-15 25 -21 51 -21 93 0 52 -4 64 -32 98 l-32 38 -60 -6 c-41 -4 -65 -12
-74 -24 -13 -16 -14 -16 -26 1 -7 9 -23 17 -36 17 -13 0 -29 -8 -36 -17 -12
-17 -13 -17 -26 -1 -9 12 -33 20 -74 24 l-60 6 -32 -38z m108 6 c0 -5 -11 -10
-24 -10 -33 0 -56 -39 -56 -95 0 -25 2 -45 5 -45 3 0 19 10 35 22 23 17 33 19
42 10 9 -9 8 -16 -5 -30 -9 -10 -17 -24 -17 -30 0 -6 -13 -25 -29 -41 -16 -17
-34 -38 -40 -48 -9 -17 -12 -16 -38 9 -27 27 -27 28 -10 57 11 18 17 50 17 86
0 41 6 67 21 91 18 29 26 34 60 34 21 0 39 -4 39 -10z m339 -24 c15 -24 21
-50 21 -91 0 -36 6 -68 17 -86 17 -29 17 -30 -10 -57 -26 -25 -29 -26 -38 -9
-6 10 -24 31 -40 48 -16 16 -29 35 -29 41 0 6 -8 20 -17 30 -13 14 -14 21 -5
30 9 9 19 7 42 -10 16 -12 32 -22 35 -22 3 0 5 20 5 45 0 56 -23 95 -56 95
-13 0 -24 5 -24 10 0 6 18 10 39 10 34 0 42 -5 60 -34z m-49 -25 c5 -11 10
-31 10 -46 l0 -26 -29 22 -30 22 -31 -31 c-32 -32 -32 -55 -2 -50 11 2 23 -9
34 -30 9 -19 24 -40 35 -47 17 -13 16 -14 -8 -15 -19 0 -35 10 -53 35 -26 34
-28 35 -99 35 -71 0 -72 -1 -95 -35 -16 -26 -29 -35 -50 -35 -25 1 -26 2 -9
15 11 7 26 28 35 47 10 18 26 35 36 37 43 8 61 57 32 87 -25 24 -56 16 -92
-23 l-34 -38 0 28 c0 16 5 37 10 48 10 18 23 19 170 19 147 0 160 -1 170 -19z
m-244 -36 c13 -13 13 -17 1 -29 -11 -12 -15 -12 -24 3 -9 15 -7 41 4 41 2 0
11 -7 19 -15z"/>
<path d="M384 369 c-10 -17 13 -36 27 -22 12 12 4 33 -11 33 -5 0 -12 -5 -16
-11z"/>
<path d="M344 329 c-10 -17 13 -36 27 -22 12 12 4 33 -11 33 -5 0 -12 -5 -16
-11z"/>
<path d="M270 270 c0 -5 9 -10 20 -10 11 0 20 5 20 10 0 6 -9 10 -20 10 -11 0
-20 -4 -20 -10z"/>
<path d="M330 270 c0 -5 9 -10 20 -10 11 0 20 5 20 10 0 6 -9 10 -20 10 -11 0
-20 -4 -20 -10z"/>
</g>
</svg>
