<?xml version="1.0" standalone="no"?>
<!DOCTYPE svg PUBLIC "-//W3C//DTD SVG 20010904//EN"
 "http://www.w3.org/TR/2001/REC-SVG-20010904/DTD/svg10.dtd">
<svg version="1.0" xmlns="http://www.w3.org/2000/svg"
 width="16.000000pt" height="16.000000pt" viewBox="0 0 16.000000 16.000000"
 preserveAspectRatio="xMidYMid meet">

<g transform="translate(0.000000,16.000000) scale(0.100000,-0.100000)"
fill="#4dca89" stroke="none">
<path d="M93 146 c3 -7 -4 -18 -14 -24 -10 -7 -19 -17 -19 -23 0 -5 5 -7 10
-4 16 10 12 -11 -5 -25 -8 -6 -19 -9 -25 -5 -5 3 -10 1 -10 -5 0 -20 32 -24
46 -5 16 22 25 16 41 -28 10 -29 12 -30 12 -8 1 14 -4 40 -11 58 -10 27 -10
38 0 53 16 25 16 25 -9 27 -13 1 -19 -3 -16 -11z"/>
<path d="M80 10 c0 -5 5 -10 10 -10 6 0 10 5 10 10 0 6 -4 10 -10 10 -5 0 -10
-4 -10 -10z"/>
</g>
</svg>
